<svg xmlns="http://www.w3.org/2000/svg" width="101" height="30" viewBox="0 0 2056 611"><path d="M80 4.6c-33.8 9.1-60.2 44-71.4 94.6C3.4 123 3.5 118 3.5 303s-.1 180 5.1 203.8c9.8 44.3 31.4 77.1 59.5 90.2 14 6.5-6.2 6 263.5 5.8l244.9-.3 8.3-3.2c39.3-15.1 68-62.6 74.1-122.2 1.5-14.3 1.5-333.9 0-348.2-6.1-59.6-34.8-107.1-74.1-122.2l-8.3-3.2L331 3.3c-213.5-.2-246.2 0-251 1.3zm454.2 17.5c10.7 4.2 17.5 8.7 26.8 17.9 16.4 16.3 27.8 38.5 34 66.5 3.8 17.2 4.2 34.9 3.7 170-.4 127.3-.4 129.1-2.5 140.4-3.9 20.2-12.3 41.3-22.5 56.6-5.2 7.9-19.9 22.1-27 26.4-3.2 1.8-8.8 4.5-12.5 6l-6.7 2.6-192.8.3c-213.5.3-198.8.7-212.7-6.3-8.2-4.1-20.9-15.7-27.5-25-10.1-14.2-18.7-36.6-22.7-59l-2.3-13v-282l2.3-13c7.4-40.7 25.9-72.2 50.1-84.9 13.2-6.9-1.7-6.5 212.1-6.3l193.5.2 6.7 2.6z"/><path d="M142 159.5V270h45v-71.5l10.6-10.5 10.5-10.5 1.9 2.5c1 1.4 17.1 22.1 35.7 46l33.9 43.5 28.2.3c15.5.1 28.2-.1 28.2-.5 0-.5-20.3-26.9-45.1-58.8s-45.8-59-46.6-60.2c-1.4-2.1.3-4.1 42.1-51.2 24-26.9 43.6-49.2 43.6-49.5 0-.3-13.9-.6-30.9-.6h-30.9l-40.4 48.4-40.3 48.4-.3-48.4L187 49h-45v110.5zM774 4.6c-33.8 9.1-60.2 44-71.4 94.6-5.2 23.8-5.1 18.8-5.1 203.8s-.1 180 5.1 203.8c9.8 44.3 31.4 77.1 59.5 90.2 14 6.5-6.2 6 263.5 5.8l244.9-.3 8.3-3.2c39.3-15.1 68-62.6 74.1-122.2 1.5-14.3 1.5-333.9 0-348.2-6.1-59.6-34.8-107.1-74.1-122.2l-8.3-3.2-245.5-.2c-213.5-.2-246.2 0-251 1.3zm447 15.5c.8.3 3.3 1.1 5.5 1.8 6.4 2.1 14.5 6.3 19.5 9.9 5.7 4.3 17.1 16.2 20.6 21.6 1.5 2.2 3.4 5.2 4.3 6.6 1.6 2.4 6.1 11.5 9.4 19 2.9 6.4 6.7 18.6 8.7 27.6 3.8 17.1 4.2 35 3.7 169.9-.4 126.8-.4 129.2-2.5 140.2-3.7 19.2-12.5 41.7-21.6 55.4-11 16.3-24.9 27.7-42.6 34.6-4.2 1.7-15.8 1.8-197 2.1-213.6.3-199.1.7-213.1-6.4-8.1-4-20.9-15.7-27.4-24.9-10.2-14.6-18.7-36.7-22.7-59l-2.3-13v-282l2.3-13c2.9-16.3 8.7-34.2 14.8-46 5.1-9.8 7.3-13.2 13.1-20 11-13 21.6-20.2 34.3-23.6 6.1-1.6 19.6-1.7 199-1.5 105.9.1 193.2.4 194 .7z"/><path d="M836 159.5V270h45.5l43.5-73.4 43.5-73.4.3 73.4.2 73.4h50V49h-25.2l-25.3.1-40.5 72.7-40.5 72.7-.3-72.8L887 49h-51v110.5zM1469 4.6c-38.6 10.3-67 54.1-75.2 115.9-1 8-1.3 44.8-1.3 182.5s.3 174.5 1.3 182.5c7.3 55.1 30.7 96.3 63.3 111.5 14 6.5-6.2 6 263.5 5.8l244.9-.3 8.3-3.2c39.3-15.1 68-62.6 74.1-122.2 1.5-14.3 1.5-333.9 0-348.2-6.1-59.6-34.8-107.1-74.1-122.2l-8.3-3.2-245.5-.2c-213.5-.2-246.2 0-251 1.3zm454.2 17.5c10.7 4.2 17.5 8.7 26.8 17.9 16.4 16.3 27.8 38.5 34 66.5 3.8 17.2 4.2 34.9 3.7 170-.4 127.3-.4 129.1-2.5 140.4-3.9 20.2-12.3 41.3-22.5 56.6-5.2 7.9-19.9 22.1-27 26.4-3.2 1.8-8.8 4.5-12.5 6l-6.7 2.6-192.8.3c-213.5.3-198.8.7-212.7-6.3-8.2-4.1-20.9-15.7-27.5-25-10.1-14.2-18.7-36.6-22.7-59l-2.3-13v-282l2.3-13c7.4-40.7 25.9-72.2 50.1-84.9 13.2-6.9-1.7-6.5 212.1-6.3l193.5.2 6.7 2.6z"/><path d="M1531 69v20h61v181h45V89h66V49h-172v20z"/></svg>